<?xml version="1.0" standalone="no"?>
<!DOCTYPE svg PUBLIC "-//W3C//DTD SVG 20010904//EN"
 "http://www.w3.org/TR/2001/REC-SVG-20010904/DTD/svg10.dtd">
<svg version="1.0" xmlns="http://www.w3.org/2000/svg"
 width="582.000000pt" height="600.000000pt" viewBox="0 0 582.000000 600.000000"
 preserveAspectRatio="xMidYMid meet">
<metadata>
Created by potrace 1.16, written by Peter Selinger 2001-2019
</metadata>
<g transform="translate(0.000000,600.000000) scale(0.100000,-0.100000)"
fill="#000000" stroke="none">
<path d="M2515 5806 c-195 -61 -325 -256 -370 -556 -35 -226 -6 -598 71 -920
29 -120 92 -348 110 -395 3 -7 -82 31 -188 84 -380 190 -777 323 -1131 381
-145 24 -210 25 -295 5 -126 -30 -206 -85 -249 -172 -22 -46 -27 -70 -27 -125
2 -201 218 -394 627 -558 l118 -48 -63 -11 c-219 -38 -337 -233 -272 -451 19
-65 81 -159 129 -196 19 -14 35 -30 35 -34 0 -4 -28 -15 -62 -25 -54 -15 -337
-104 -558 -177 -171 -56 -321 -161 -368 -259 -24 -50 -30 -138 -11 -186 28
-74 137 -142 262 -164 75 -12 418 -7 466 7 20 6 15 -4 -30 -57 -145 -171 -201
-331 -178 -511 22 -173 134 -296 309 -339 79 -20 285 -17 390 5 104 22 249 73
355 123 44 21 83 39 87 41 4 2 -8 -34 -26 -80 -84 -213 -109 -301 -114 -391
-7 -137 31 -213 132 -264 121 -62 287 -22 486 118 96 67 319 291 390 392 l55
78 7 -158 c15 -332 33 -433 99 -570 54 -113 129 -192 227 -240 75 -37 78 -38
191 -38 98 0 125 4 174 24 140 55 264 192 313 344 23 72 26 98 26 207 -1 157
-42 426 -88 585 -3 11 21 -19 53 -66 190 -276 305 -416 413 -502 109 -87 175
-124 253 -143 199 -49 347 92 347 332 0 154 -107 476 -276 833 -35 74 -62 136
-60 138 2 3 19 -3 38 -13 70 -36 347 -147 428 -171 74 -23 105 -26 240 -27
123 -1 170 3 225 18 317 85 521 325 502 591 -19 253 -180 439 -520 600 -138
65 -265 113 -428 160 -68 20 -130 39 -138 41 -27 9 52 51 109 58 53 7 334 66
510 107 248 57 415 220 428 414 11 182 -87 322 -264 375 l-42 12 5 147 c6 174
-8 259 -63 370 -67 135 -185 230 -354 283 -65 20 -95 23 -230 23 -132 0 -167
-3 -235 -23 -231 -67 -468 -223 -715 -472 -166 -167 -358 -406 -443 -552 -27
-46 -46 -72 -43 -58 69 329 106 870 77 1142 -16 144 -45 282 -82 382 -97 266
-309 479 -530 531 -77 18 -179 18 -234 1z m215 -173 c167 -60 318 -246 385
-479 45 -155 59 -300 59 -614 0 -343 -18 -562 -80 -927 -38 -230 -18 -217
-168 -97 -70 57 -195 148 -276 204 l-149 100 -30 78 c-63 164 -113 351 -150
562 -40 225 -46 294 -46 530 1 211 3 243 23 313 78 281 234 400 432 330z
m2142 -968 c228 -57 329 -215 315 -493 -3 -63 -10 -119 -15 -124 -5 -5 -54
-16 -108 -24 -346 -52 -851 -239 -1603 -593 -118 -56 -218 -101 -222 -101 -13
0 37 134 96 255 97 201 237 387 455 605 284 284 570 460 797 489 86 11 211 5
285 -14z m-3762 -466 c365 -69 702 -185 1076 -369 l221 -110 91 -182 c50 -101
105 -207 122 -236 32 -52 32 -53 9 -48 -13 3 -78 15 -144 26 -193 33 -507 106
-711 164 -174 50 -472 154 -498 175 -6 4 -54 27 -106 51 -291 132 -519 302
-551 411 -11 35 -10 43 8 67 26 35 70 60 125 72 60 13 233 2 358 -21z m4010
-324 c0 -14 -77 -156 -113 -210 -63 -94 -163 -209 -241 -276 -117 -102 -213
-170 -253 -180 -88 -21 -409 -29 -800 -19 -219 5 -406 10 -415 10 -42 0 -8 22
155 98 505 236 1072 454 1387 531 149 37 280 58 280 46z m263 -44 c61 -40 87
-90 87 -174 0 -82 -33 -149 -106 -216 -64 -59 -88 -68 -306 -125 l-167 -43 67
63 c114 106 265 321 319 455 18 43 34 69 44 69 8 0 36 -13 62 -29z m-2617
-347 c65 -48 151 -113 191 -145 69 -57 71 -60 62 -91 -5 -17 -12 -35 -17 -40
-4 -4 -48 -2 -96 4 l-89 12 -52 81 c-52 79 -155 265 -155 279 0 11 31 -8 156
-100z m-1041 -153 c72 -11 206 -36 300 -56 238 -51 578 -151 525 -154 -8 -1
-106 -14 -218 -31 -333 -48 -613 -104 -988 -196 l-70 -17 -74 39 c-94 49 -131
87 -153 153 -20 61 -21 100 -6 154 12 43 60 103 92 113 88 28 385 26 592 -5z
m1985 -282 c195 -14 428 -45 417 -55 -11 -11 -256 -98 -366 -130 l-125 -37
-41 45 c-137 152 -165 187 -153 191 7 3 38 4 68 1 30 -2 120 -9 200 -15z
m-927 -10 c14 -6 34 -28 45 -48 l21 -37 -87 -87 -87 -86 -130 -26 c-71 -14
-174 -37 -227 -51 -53 -13 -125 -24 -160 -24 -91 0 -316 28 -443 54 -117 25
-259 65 -253 71 9 9 408 107 563 139 157 32 407 74 565 95 95 12 166 13 193 0z
m616 -121 c56 -62 101 -116 101 -119 0 -4 -63 -19 -141 -34 l-141 -27 -29 28
c-28 27 -29 31 -29 118 0 50 5 98 10 106 11 17 64 38 102 39 21 1 45 -20 127
-111z m1188 -19 c172 -47 375 -121 522 -190 211 -99 354 -219 415 -349 26 -56
31 -76 31 -145 -1 -73 -4 -86 -39 -153 -72 -135 -206 -230 -380 -267 -205 -45
-448 13 -867 208 l-96 45 -56 93 c-80 138 -222 348 -315 472 -51 66 -77 109
-70 112 7 2 72 20 143 40 138 40 357 118 446 160 63 30 61 30 266 -26z m-3239
-209 c117 -31 325 -64 472 -76 47 -3 89 -9 93 -11 4 -3 -59 -27 -140 -55 -267
-90 -481 -184 -718 -317 -69 -38 -73 -39 -255 -57 -345 -33 -538 -21 -615 40
-33 26 -29 49 17 101 41 47 122 94 258 150 258 105 726 266 755 259 11 -3 71
-18 133 -34z m2283 -52 c52 -66 216 -314 259 -391 l33 -58 -69 41 c-168 103
-534 382 -534 409 0 6 202 47 247 50 16 1 35 -14 64 -51z m-643 -85 c10 -143
-120 -649 -226 -873 -37 -78 -38 -68 -17 115 27 232 59 372 147 648 45 143 52
158 72 155 17 -2 22 -11 24 -45z m308 -58 c169 -150 367 -292 587 -420 l142
-82 47 -89 c94 -177 275 -629 333 -832 32 -108 37 -250 11 -299 -38 -74 -112
-84 -223 -28 -341 170 -809 917 -968 1544 -25 99 -55 259 -55 293 0 19 1 19
24 1 13 -10 59 -50 102 -88z m-811 76 c-17 -16 -222 -97 -370 -146 -214 -70
-777 -202 -748 -175 18 18 240 106 408 162 239 80 582 167 660 168 36 0 55 -4
50 -9z m255 -51 c-173 -342 -467 -698 -727 -879 l-32 -22 15 36 c43 104 256
433 395 610 163 208 178 223 275 270 49 24 92 44 97 44 4 1 -6 -26 -23 -59z
m476 -620 c150 -504 226 -890 228 -1160 l1 -145 -34 -70 c-40 -82 -106 -151
-176 -185 -74 -37 -182 -36 -246 2 -104 61 -177 183 -214 359 -23 106 -35 225
-45 433 l-9 195 59 123 c109 229 203 538 244 798 27 172 23 172 83 -5 30 -88
79 -243 109 -345z m-912 453 c-159 -209 -305 -438 -438 -690 l-94 -177 -68
-34 c-221 -111 -469 -182 -670 -189 -159 -7 -223 8 -286 65 -147 132 -103 374
107 585 129 128 121 124 327 163 358 68 684 153 978 257 85 30 159 55 164 56
4 0 -4 -16 -20 -36z m427 -74 c-50 -186 -91 -462 -111 -744 l-10 -150 -47 -70
c-140 -213 -282 -360 -478 -500 -96 -68 -159 -96 -233 -102 -125 -10 -181 40
-168 151 13 111 157 499 195 524 80 54 270 210 351 289 164 156 354 401 468
599 26 45 48 81 50 79 1 -1 -6 -36 -17 -76z"/>
</g>
</svg>
